PathFileType	4	(X/Y/Z)	c:/Users/goper/Files/vsCode/490R/osim_files/C08/C08_Fast_03.trc
DataRate	CameraRate	NumFrames	NumMarkers	Units                	OrigDataRate	OrigDataStartFrame	OrigNumFrames
250.00	250.00	4	36	mm	250.0	871	2321
                Frame#	Time	LPSIS			LASIS			LTH1			LTH2			LTH3			LTH4			LLFE			LMFE			LSH1			LSH2			LSH3			LSH4			LLMAL			LMMAL			LCAL			LMTP5			LTOE			LMTP1			RPSIS			RASIS			RTH1			RTH2			RTH3			RTH4			RLFE			RMFE			RSH1			RSH2			RSH3			RSH4			RLMAL			RMMAL			RCAL			RMTP1			RTOE			RMTP5		
		X1	Y1	Z1	X2	Y2	Z2	X3	Y3	Z3	X4	Y4	Z4	X5	Y5	Z5	X6	Y6	Z6	X7	Y7	Z7	X8	Y8	Z8	X9	Y9	Z9	X10	Y10	Z10	X11	Y11	Z11	X12	Y12	Z12	X13	Y13	Z13	X14	Y14	Z14	X15	Y15	Z15	X16	Y16	Z16	X17	Y17	Z17	X18	Y18	Z18	X19	Y19	Z19	X20	Y20	Z20	X21	Y21	Z21	X22	Y22	Z22	X23	Y23	Z23	X24	Y24	Z24	X25	Y25	Z25	X26	Y26	Z26	X27	Y27	Z27	X28	Y28	Z28	X29	Y29	Z29	X30	Y30	Z30	X31	Y31	Z31	X32	Y32	Z32	X33	Y33	Z33	X34	Y34	Z34	X35	Y35	Z35	X36	Y36	Z36

871	3.48000	2257.75171	1056.42249	249.81404	2052.38428	1007.35938	334.60007	2189.81201	741.42291	402.02310	2206.60913	666.25598	380.13049	2222.34180	595.90796	372.79550	0.00000	0.00000	0.00000	0.00000	0.00000	0.00000	2066.58008	531.04108	63.09559	2258.15430	425.62009	372.05661	0.00000	0.00000	0.00000	2317.63354	433.37787	374.25183	2322.62329	386.92557	373.47791	0.00000	0.00000	0.00000	0.00000	0.00000	0.00000	2052.36694	759.47821	29.15538	0.00000	0.00000	0.00000	-1502.63538	741.07574	2791.98999	0.00000	0.00000	0.00000	2258.56152	1051.32019	189.89627	2064.04248	1014.98779	97.94035	0.00000	0.00000	0.00000	0.00000	0.00000	0.00000	0.00000	0.00000	0.00000	2372.81494	116.63220	315.75452	0.00000	0.00000	0.00000	1989.37317	592.04541	238.71912	1978.45667	422.67526	45.16283	0.00000	0.00000	0.00000	0.00000	0.00000	0.00000	0.00000	0.00000	0.00000	0.00000	0.00000	0.00000	1898.27710	130.07170	174.08112	1982.17322	88.94212	161.71956	1765.97424	93.20642	148.26828	1760.10071	117.53210	93.96253	0.00000	0.00000	0.00000
872	3.48400	2252.30615	1055.63257	249.51976	2047.10876	1006.34515	334.79819	2185.77612	741.04468	402.16299	2203.00171	666.01312	380.24820	2219.14185	595.79889	372.88705	0.00000	0.00000	0.00000	0.00000	0.00000	0.00000	2060.52905	529.91479	62.80587	2256.06689	425.59940	372.13715	0.00000	0.00000	0.00000	2315.60205	433.78842	374.28970	2320.83105	387.33295	373.49698	0.00000	0.00000	0.00000	0.00000	0.00000	0.00000	2047.66382	757.74347	29.32607	0.00000	0.00000	0.00000	-1502.56787	741.00885	2792.03955	0.00000	0.00000	0.00000	2252.93091	1050.46790	189.62846	2058.09521	1014.01825	97.97862	0.00000	0.00000	0.00000	0.00000	0.00000	0.00000	0.00000	0.00000	0.00000	2372.31250	117.15376	315.67892	0.00000	0.00000	0.00000	1985.61169	591.88135	239.16000	1972.35217	422.46875	44.62259	0.00000	0.00000	0.00000	0.00000	0.00000	0.00000	0.00000	0.00000	0.00000	0.00000	0.00000	0.00000	1884.15356	131.07961	173.70564	1966.15906	86.96620	160.81992	1750.73157	96.91557	148.61359	1745.30786	121.40827	94.57626	1790.30237	87.24293	37.60258
873	3.48800	2246.80566	1054.80737	249.20166	2043.10217	1005.66968	336.22568	2181.67383	740.63947	402.32147	2199.26465	665.70105	380.26804	2215.82617	595.62915	372.91116	0.00000	0.00000	0.00000	0.00000	0.00000	0.00000	2054.46655	528.76801	62.44956	2251.67065	422.95575	371.07233	0.00000	0.00000	0.00000	2313.28882	434.06433	374.19254	2318.86182	387.66153	373.42499	0.00000	0.00000	0.00000	0.00000	0.00000	0.00000	2043.05762	756.07373	29.32050	0.00000	0.00000	0.00000	-1502.59106	740.95886	2792.04346	0.00000	0.00000	0.00000	2247.28442	1049.63074	189.32776	2052.06006	1012.95496	96.63318	0.00000	0.00000	0.00000	0.00000	0.00000	0.00000	0.00000	0.00000	0.00000	2371.86353	117.78300	315.60977	0.00000	0.00000	0.00000	1981.85059	591.72278	239.63173	1964.21692	420.99194	44.51798	0.00000	0.00000	0.00000	0.00000	0.00000	0.00000	0.00000	0.00000	0.00000	0.00000	0.00000	0.00000	1869.29907	130.86041	173.30057	1950.48425	85.26942	160.03568	1734.91357	100.23116	147.97946	1729.31372	124.29253	93.89383	0.00000	0.00000	0.00000
874	3.49200	2241.28687	1053.98083	248.85789	2037.86670	1004.66809	336.50711	2177.53711	740.26385	402.45148	2195.51270	665.45410	380.35471	2212.39062	595.45703	372.93237	0.00000	0.00000	0.00000	0.00000	0.00000	0.00000	2048.38379	527.57715	62.14214	2249.45044	422.99237	371.13150	0.00000	0.00000	0.00000	2311.06396	434.47919	374.18790	2316.88794	388.09177	373.40839	0.00000	0.00000	0.00000	0.00000	0.00000	0.00000	2038.39429	754.48462	29.18106	0.00000	0.00000	0.00000	-1502.58899	740.93701	2792.04321	0.00000	0.00000	0.00000	2241.59937	1048.75500	189.01164	2046.16479	1012.07513	98.03849	0.00000	0.00000	0.00000	0.00000	0.00000	0.00000	0.00000	0.00000	0.00000	2371.40845	118.47409	315.54852	0.00000	0.00000	0.00000	1978.05652	591.50616	240.04836	1957.31311	420.33188	44.24925	0.00000	0.00000	0.00000	0.00000	0.00000	0.00000	0.00000	0.00000	0.00000	0.00000	0.00000	0.00000	1855.63855	132.06477	172.88734	1935.20837	83.88015	159.43411	1720.10828	103.81623	147.88048	1715.32104	128.32489	94.40843	0.00000	0.00000	0.00000
